<svg width="897" height="991" viewBox="0 0 897 991" fill="none" xmlns="http://www.w3.org/2000/svg">
<circle cx="448.5" cy="119.5" r="119.5" fill="#FFA600"/>
<path d="M532.331 591.495C521.485 596.313 513.333 596 501.465 596H441.858C425.988 596 406.692 606.175 390.826 605.831V605.831C381.552 605.63 376.445 604.356 367.423 602.197C316.677 590.054 260.116 519.318 227.612 469.025C218.089 454.29 211.277 437.851 207.684 420.678C172.017 250.19 257.301 182.084 308.304 138.744C317.542 130.894 326.595 112.517 320.945 101.792V101.792C314.816 90.1585 304.271 97.8417 293.916 105.944C230.834 155.302 174.807 237.745 153.32 275.5C20.3204 542 307.32 745 444.32 730C529.529 729.642 618.156 688.934 662.948 662.229C672.186 656.721 684.428 638.1 684.97 627.359V627.359C686.124 604.504 665.455 628.83 646.134 641.091C614.949 660.879 560.932 663.186 528.424 660.832C525.695 660.634 521.744 659.682 519.469 658.16V658.16C507.002 649.82 522.771 636.736 536.337 630.335C545.561 625.983 553.022 620.268 558.224 615.269C562.592 611.071 565.594 605.671 567.593 599.952C569.271 595.152 570.376 591.113 571.014 587.732C574.338 570.134 548.698 584.225 532.331 591.495V591.495Z" fill="#76A437" stroke="black"/>
<path d="M293.744 215.331C273.344 195.331 230.244 112.331 211.244 73.3315V73.3315C198.982 48.4056 157.824 30.8603 141.747 53.5142C140.748 54.9218 139.931 56.4218 139.274 57.9824C132.886 73.1618 142.98 89.5269 149.482 104.658C175.631 165.511 225.466 312.603 257.215 409.433C264.892 432.847 276.181 455.211 293.831 472.404C358.903 535.791 428.58 544.698 474.913 537.594C498.639 533.956 518.777 519.441 534.614 501.404C621.831 402.069 675.101 269.493 691.744 211.331C699.344 157.731 677.244 157.331 665.244 163.831C649.854 173.216 640.892 189.205 574.561 249.813C565.408 258.176 557.356 267.789 547.757 275.636C514.244 303.036 456.367 310.064 410.026 306.555C399.157 305.732 388.288 303.608 378.7 298.423C343.869 279.586 316.113 237.262 293.744 215.331Z" fill="#FFA600" stroke="black"/>
<path d="M117.266 887.035L135.449 790.922H163.188L133.223 926H105.205L83.2178 835.639L61.2305 926H33.2129L3.24707 790.922H30.9863L49.2627 886.85L71.5283 790.922H95.0928L117.266 887.035ZM210.544 926H183.639V825.619H210.544V926ZM182.062 799.643C182.062 795.622 183.392 792.313 186.052 789.716C188.773 787.118 192.453 785.819 197.092 785.819C201.668 785.819 205.318 787.118 208.039 789.716C210.76 792.313 212.121 795.622 212.121 799.643C212.121 803.725 210.729 807.064 207.946 809.662C205.225 812.26 201.607 813.559 197.092 813.559C192.577 813.559 188.928 812.26 186.144 809.662C183.423 807.064 182.062 803.725 182.062 799.643ZM292.782 898.261C292.782 894.983 291.143 892.416 287.865 890.561C284.649 888.643 279.453 886.942 272.279 885.458C248.405 880.448 236.468 870.305 236.468 855.028C236.468 846.122 240.148 838.7 247.508 832.763C254.93 826.763 264.61 823.764 276.546 823.764C289.287 823.764 299.462 826.763 307.069 832.763C314.738 838.762 318.573 846.555 318.573 856.142H291.761C291.761 852.307 290.524 849.153 288.05 846.679C285.576 844.143 281.711 842.875 276.454 842.875C271.939 842.875 268.444 843.896 265.97 845.937C263.496 847.978 262.259 850.575 262.259 853.729C262.259 856.698 263.651 859.11 266.434 860.966C269.279 862.759 274.042 864.337 280.721 865.697C287.401 866.996 293.029 868.48 297.606 870.15C311.769 875.346 318.851 884.345 318.851 897.147C318.851 906.301 314.924 913.723 307.069 919.413C299.214 925.041 289.071 927.855 276.639 927.855C268.228 927.855 260.744 926.371 254.188 923.402C247.694 920.372 242.591 916.259 238.88 911.063C235.17 905.806 233.314 900.147 233.314 894.086H258.734C258.981 898.848 260.744 902.497 264.022 905.033C267.3 907.569 271.691 908.837 277.196 908.837C282.329 908.837 286.195 907.878 288.793 905.961C291.452 903.982 292.782 901.415 292.782 898.261ZM368.062 836.566C375.175 828.031 384.112 823.764 394.873 823.764C416.644 823.764 427.684 836.412 427.994 861.708V926H401.182V862.45C401.182 856.698 399.945 852.462 397.471 849.74C394.997 846.957 390.884 845.565 385.132 845.565C377.277 845.565 371.587 848.596 368.062 854.657V926H341.25V783.5H368.062V836.566ZM483.513 903.642H542.61V926H455.681V790.922H483.513V903.642ZM590.893 926H563.988V825.619H590.893V926ZM562.411 799.643C562.411 795.622 563.741 792.313 566.4 789.716C569.122 787.118 572.802 785.819 577.44 785.819C582.017 785.819 585.666 787.118 588.388 789.716C591.109 792.313 592.47 795.622 592.47 799.643C592.47 803.725 591.078 807.064 588.295 809.662C585.574 812.26 581.955 813.559 577.44 813.559C572.925 813.559 569.276 812.26 566.493 809.662C563.772 807.064 562.411 803.725 562.411 799.643ZM673.131 898.261C673.131 894.983 671.492 892.416 668.214 890.561C664.998 888.643 659.802 886.942 652.628 885.458C628.754 880.448 616.817 870.305 616.817 855.028C616.817 846.122 620.497 838.7 627.857 832.763C635.279 826.763 644.958 823.764 656.895 823.764C669.636 823.764 679.81 826.763 687.418 832.763C695.087 838.762 698.922 846.555 698.922 856.142H672.11C672.11 852.307 670.873 849.153 668.399 846.679C665.925 844.143 662.06 842.875 656.803 842.875C652.288 842.875 648.793 843.896 646.319 845.937C643.845 847.978 642.608 850.575 642.608 853.729C642.608 856.698 644 859.11 646.783 860.966C649.628 862.759 654.39 864.337 661.07 865.697C667.75 866.996 673.378 868.48 677.955 870.15C692.118 875.346 699.2 884.345 699.2 897.147C699.2 906.301 695.273 913.723 687.418 919.413C679.563 925.041 669.42 927.855 656.988 927.855C648.577 927.855 641.093 926.371 634.537 923.402C628.043 920.372 622.94 916.259 619.229 911.063C615.518 905.806 613.663 900.147 613.663 894.086H639.083C639.33 898.848 641.093 902.497 644.371 905.033C647.649 907.569 652.04 908.837 657.545 908.837C662.678 908.837 666.544 907.878 669.141 905.961C671.801 903.982 673.131 901.415 673.131 898.261ZM754.348 800.941V825.619H771.511V845.287H754.348V895.385C754.348 899.096 755.06 901.755 756.482 903.363C757.905 904.971 760.626 905.775 764.646 905.775C767.615 905.775 770.243 905.559 772.532 905.126V925.443C767.275 927.051 761.863 927.855 756.297 927.855C737.494 927.855 727.908 918.362 727.537 899.374V845.287H712.879V825.619H727.537V800.941H754.348ZM822.322 890.404C822.322 883.829 823.836 877.725 826.863 872.094C829.923 866.462 834.139 862.035 839.51 858.812C844.913 855.557 850.74 853.93 856.99 853.93C863.24 853.93 869.051 855.557 874.422 858.812C879.826 862.035 884.041 866.462 887.068 872.094C890.128 877.725 891.658 883.829 891.658 890.404C891.658 897.045 890.112 903.197 887.02 908.861C883.927 914.493 879.695 918.92 874.324 922.143C868.986 925.365 863.208 926.977 856.99 926.977C850.708 926.977 844.881 925.349 839.51 922.094C834.171 918.839 829.972 914.395 826.912 908.764C823.852 903.132 822.322 897.012 822.322 890.404ZM885.652 890.404C885.652 885.001 884.432 879.988 881.99 875.365C879.549 870.71 876.098 866.999 871.639 864.232C867.179 861.433 862.296 860.033 856.99 860.033C851.814 860.033 846.997 861.368 842.537 864.037C838.11 866.706 834.627 870.385 832.088 875.072C829.549 879.76 828.279 884.87 828.279 890.404C828.279 895.938 829.533 901.049 832.039 905.736C834.578 910.424 838.061 914.135 842.488 916.869C846.948 919.571 851.782 920.922 856.99 920.922C862.199 920.922 867.033 919.538 871.492 916.771C875.984 914.005 879.467 910.277 881.941 905.59C884.415 900.902 885.652 895.84 885.652 890.404ZM849.959 894.115V910.57H842.586V869.066H856.307C861.222 869.066 865.096 870.189 867.928 872.436C870.76 874.649 872.176 877.807 872.176 881.908C872.176 885.554 870.337 888.386 866.658 890.404C868.644 891.413 870.027 892.829 870.809 894.652C871.622 896.443 872.029 898.673 872.029 901.342C872.029 904.011 872.078 905.899 872.176 907.006C872.306 908.113 872.534 909.04 872.859 909.789V910.57H865.291C864.868 909.464 864.656 906.306 864.656 901.098C864.656 898.624 864.119 896.85 863.045 895.775C861.971 894.669 860.18 894.115 857.674 894.115H849.959ZM849.959 887.572H856.6C859.008 887.572 860.978 887.051 862.508 886.01C864.07 884.968 864.852 883.601 864.852 881.908C864.852 879.63 864.266 878.018 863.094 877.074C861.954 876.098 859.871 875.593 856.844 875.561H849.959V887.572Z" fill="black"/>
</svg>
